<svg width="1454" height="993" viewBox="0 0 1454 993" fill="none" xmlns="http://www.w3.org/2000/svg">
<path d="M2.23047 402H94.0305C94.0305 409.6 92.6305 416.8 89.8305 423.6C87.1638 430.267 83.4305 436.2 78.6305 441.4C73.8305 446.6 68.2305 450.8 61.8305 454C55.4305 457.2 48.5638 459.133 41.2305 459.8V542H21.0305V418.8C20.8971 416.933 20.2305 415.067 19.0305 413.2C17.8305 411.2 14.9638 409.667 10.4305 408.6C9.09714 408.333 7.89714 408.133 6.83047 408C5.89714 407.733 5.03047 407.533 4.23047 407.4C3.43047 407.267 2.7638 407.133 2.23047 407V402ZM41.2305 439.6C46.9638 438.933 52.1638 437 56.8305 433.8C61.4971 430.6 65.3638 426.667 68.4305 422H41.2305V439.6ZM181.712 460.4L166.512 483.4L181.712 542H161.112L151.712 506.2L137.512 527.6L121.312 504.2L111.912 542H90.7117L106.112 482.6L90.5117 460.4H96.9117L108.712 471.8L121.112 421.8C121.245 421.4 121.312 420.6 121.312 419.4C121.445 418.067 121.178 416.667 120.512 415.2C119.978 413.733 118.912 412.333 117.312 411C115.845 409.667 113.578 408.8 110.512 408.4C107.578 408 105.178 407.733 103.312 407.6C101.578 407.467 100.178 407.333 99.1117 407.2C97.9117 407.067 96.9784 407 96.3117 407V402H145.912L163.912 472.6L175.912 460.4H181.712ZM137.312 499.2L147.312 489.2L136.112 444.8L125.312 487.8L137.312 499.2ZM208.676 402V542H188.676V402H208.676ZM240.907 413.8L241.507 542H220.707V402H223.307C233.307 402 242.707 403.933 251.507 407.8C260.44 411.667 268.174 416.933 274.707 423.6C281.24 430.133 286.374 437.867 290.107 446.8C293.974 455.733 295.907 465.2 295.907 475.2V542H276.107V475.2C276.107 469.333 275.24 463.2 273.507 456.8C271.774 450.4 269.307 444.333 266.107 438.6C263.04 432.733 259.307 427.6 254.907 423.2C250.64 418.667 245.974 415.533 240.907 413.8ZM373.91 402V542H353.91V402H373.91ZM445.741 443.2C454.941 447.067 462.475 453.333 468.341 462C474.208 470.667 477.141 480.2 477.141 490.6C477.141 497.667 475.741 504.333 472.941 510.6C470.275 516.867 466.608 522.333 461.941 527C457.408 531.667 452.008 535.333 445.741 538C439.608 540.667 433.008 542 425.941 542H386.141V497.4H391.141C391.141 498.2 391.141 499.4 391.141 501C391.275 502.6 391.408 504.333 391.541 506.2C391.808 507.933 392.141 509.733 392.541 511.6C392.941 513.333 393.408 514.8 393.941 516L425.941 457.8C420.075 455.933 414.675 453.2 409.741 449.6C404.941 445.867 400.741 441.533 397.141 436.6C393.675 431.667 390.941 426.267 388.941 420.4C386.941 414.533 385.941 408.4 385.941 402H452.341C455.408 402 457.608 400.733 458.941 398.2L462.541 391.8L471.341 396.8L445.741 443.2ZM435.941 439.6L445.941 422.2H411.541C414.208 426.733 417.608 430.533 421.741 433.6C425.875 436.667 430.608 438.667 435.941 439.6ZM425.941 521.8C430.208 521.8 434.208 521 437.941 519.4C441.675 517.667 444.941 515.4 447.741 512.6C450.541 509.8 452.741 506.533 454.341 502.8C456.075 498.933 456.941 494.867 456.941 490.6C456.941 483.933 454.941 477.867 450.941 472.4C447.075 466.933 442.075 463.067 435.941 460.8L402.141 521.8H425.941ZM619.407 460.4L604.207 483.4L619.407 542H598.807L589.407 506.2L575.207 527.6L559.007 504.2L549.607 542H528.407L543.807 482.6L528.207 460.4H534.607L546.407 471.8L558.807 421.8C558.94 421.4 559.007 420.6 559.007 419.4C559.14 418.067 558.874 416.667 558.207 415.2C557.674 413.733 556.607 412.333 555.007 411C553.54 409.667 551.274 408.8 548.207 408.4C545.274 408 542.874 407.733 541.007 407.6C539.274 407.467 537.874 407.333 536.807 407.2C535.607 407.067 534.674 407 534.007 407V402H583.607L601.607 472.6L613.607 460.4H619.407ZM575.007 499.2L585.007 489.2L573.807 444.8L563.007 487.8L575.007 499.2ZM646.571 413.8L647.171 542H626.371V402H628.971C638.971 402 648.371 403.933 657.171 407.8C666.104 411.667 673.838 416.933 680.371 423.6C686.904 430.133 692.038 437.867 695.771 446.8C699.638 455.733 701.571 465.2 701.571 475.2V542H681.771V475.2C681.771 469.333 680.904 463.2 679.171 456.8C677.438 450.4 674.971 444.333 671.771 438.6C668.704 432.733 664.971 427.6 660.571 423.2C656.304 418.667 651.638 415.533 646.571 413.8ZM834.774 402V542H832.174C822.174 542 812.708 540.067 803.774 536.2C794.974 532.333 787.308 527.133 780.774 520.6C774.241 513.933 769.041 506.2 765.174 497.4C761.441 488.467 759.574 479 759.574 469V402H834.774ZM779.374 422V469C779.374 474.733 780.241 480.267 781.974 485.6C783.708 490.8 786.108 495.6 789.174 500C792.374 504.267 796.108 508 800.374 511.2C804.774 514.4 809.508 516.933 814.574 518.8V422H779.374ZM923.084 402V447.2H917.884C917.75 446.667 917.617 445.8 917.484 444.6C917.35 443.533 917.217 442.133 917.084 440.4C916.95 438.533 916.75 436.133 916.484 433.2C916.217 430.667 915.484 428.667 914.284 427.2C913.217 425.733 911.95 424.6 910.484 423.8C909.15 423 907.817 422.533 906.484 422.4C905.15 422.133 904.15 422 903.484 422H867.284V434C867.55 435.867 868.35 438.2 869.684 441C871.017 443.667 873.817 445.2 878.084 445.6C881.017 445.867 884.017 446.133 887.084 446.4C890.15 446.533 893.017 446.667 895.684 446.8C898.884 446.933 901.95 447.067 904.884 447.2V457.2H867.284V524C867.284 525.733 868.017 527.933 869.484 530.6C870.95 533.267 873.817 534.867 878.084 535.4L892.084 537V542H846.684V402H923.084ZM1011.56 402V447.2H1006.36C1006.23 446.667 1006.09 445.8 1005.96 444.6C1005.83 443.533 1005.69 442.133 1005.56 440.4C1005.43 438.533 1005.23 436.133 1004.96 433.2C1004.69 430.667 1003.96 428.667 1002.76 427.2C1001.69 425.733 1000.43 424.6 998.96 423.8C997.627 423 996.293 422.533 994.96 422.4C993.627 422.133 992.627 422 991.96 422H955.76V434C956.027 435.867 956.827 438.2 958.16 441C959.493 443.667 962.293 445.2 966.56 445.6C969.493 445.867 972.493 446.133 975.56 446.4C978.627 446.533 981.493 446.667 984.16 446.8C987.36 446.933 990.427 447.067 993.36 447.2V457.2H955.76V524C955.76 525.733 956.493 527.933 957.96 530.6C959.427 533.267 962.293 534.867 966.56 535.4L980.56 537V542H935.16V402H1011.56ZM1081.64 457.2H1044.04V469C1044.04 474.867 1044.97 480.467 1046.84 485.8C1048.7 491 1051.24 495.8 1054.44 500.2C1057.64 504.467 1061.44 508.267 1065.84 511.6C1070.24 514.8 1075.04 517.267 1080.24 519C1081.3 519.267 1082.57 519.4 1084.04 519.4C1085.9 519.4 1087.77 518.867 1089.64 517.8C1091.64 516.733 1092.84 514.4 1093.24 510.8C1093.5 508.933 1093.7 507.2 1093.84 505.6C1093.97 503.867 1094.17 502.333 1094.44 501C1094.57 499.533 1094.7 498.133 1094.84 496.8H1099.84V542H1097.24C1088.84 542 1080.3 540.333 1071.64 537C1062.97 533.533 1055.1 528.667 1048.04 522.4C1040.97 516.133 1035.17 508.533 1030.64 499.6C1026.1 490.533 1023.77 480.333 1023.64 469V402H1099.84V447.2H1094.64C1094.64 446.667 1094.57 445.8 1094.44 444.6C1094.3 443.533 1094.1 442.133 1093.84 440.4C1093.7 438.533 1093.5 436.133 1093.24 433.2C1092.97 430.667 1092.24 428.667 1091.04 427.2C1089.97 425.733 1088.7 424.6 1087.24 423.8C1085.9 423 1084.57 422.533 1083.24 422.4C1081.9 422.133 1080.9 422 1080.24 422H1044.04V432.4C1044.17 432.267 1044.24 432.867 1044.24 434.2C1044.24 435.4 1044.5 436.8 1045.04 438.4C1045.7 440 1046.77 441.533 1048.24 443C1049.7 444.333 1051.97 445.2 1055.04 445.6C1057.97 445.867 1060.97 446.133 1064.04 446.4C1067.24 446.533 1070.1 446.667 1072.64 446.8C1075.7 446.933 1078.7 447.067 1081.64 447.2V457.2ZM1173.52 449.8C1181.12 455.267 1187.25 462.133 1191.92 470.4C1196.58 478.667 1198.92 487.8 1198.92 497.8V542H1178.72V497.8C1178.72 493 1177.85 488.467 1176.12 484.2C1174.52 479.933 1172.18 476.133 1169.12 472.8C1166.18 469.467 1162.72 466.733 1158.72 464.6C1154.85 462.467 1150.58 461.133 1145.92 460.6V542H1125.72V418.8C1125.45 416.933 1124.72 415.067 1123.52 413.2C1122.45 411.2 1119.58 409.667 1114.92 408.6C1112.78 408.2 1110.78 407.8 1108.92 407.4C1108.12 407.267 1107.45 407.133 1106.92 407V402H1198.92C1198.92 412 1196.58 421.2 1191.92 429.6C1187.25 437.867 1181.12 444.6 1173.52 449.8ZM1145.92 422V439.6C1151.65 438.933 1156.85 437 1161.52 433.8C1166.18 430.6 1170.05 426.667 1173.12 422H1145.92ZM1230.94 402V542H1210.94V402H1230.94ZM1263.17 413.8L1263.77 542H1242.97V402H1245.57C1255.57 402 1264.97 403.933 1273.77 407.8C1282.71 411.667 1290.44 416.933 1296.97 423.6C1303.51 430.133 1308.64 437.867 1312.37 446.8C1316.24 455.733 1318.17 465.2 1318.17 475.2V542H1298.37V475.2C1298.37 469.333 1297.51 463.2 1295.77 456.8C1294.04 450.4 1291.57 444.333 1288.37 438.6C1285.31 432.733 1281.57 427.6 1277.17 423.2C1272.91 418.667 1268.24 415.533 1263.17 413.8ZM1403.68 542C1393.55 542 1384.02 540.067 1375.08 536.2C1366.15 532.333 1358.35 527.067 1351.68 520.4C1345.02 513.733 1339.75 506 1335.88 497.2C1332.02 488.267 1330.08 478.733 1330.08 468.6V402H1406.08V447.2H1401.08C1401.08 446.667 1401.02 445.8 1400.88 444.6C1400.75 443.533 1400.55 442.133 1400.28 440.4C1400.15 438.667 1399.95 436.333 1399.68 433.4C1399.42 430.733 1398.68 428.667 1397.48 427.2C1396.42 425.733 1395.15 424.667 1393.68 424C1392.35 423.333 1391.02 422.933 1389.68 422.8C1388.35 422.533 1387.35 422.4 1386.68 422.4H1350.48V468.6C1350.48 474.333 1351.35 479.867 1353.08 485.2C1354.82 490.4 1357.28 495.2 1360.48 499.6C1363.68 504 1367.42 507.867 1371.68 511.2C1376.08 514.4 1380.88 516.933 1386.08 518.8V481.4C1386.08 481 1385.95 480.2 1385.68 479C1385.55 477.667 1385.15 476.333 1384.48 475C1383.82 473.533 1382.75 472.267 1381.28 471.2C1379.82 470 1377.75 469.2 1375.08 468.8L1362.48 467.2V457.2H1406.08V542H1403.68ZM1443.77 457.2V477.6H1423.17V457.2H1443.77ZM1443.77 540.2L1433.17 566H1423.17C1426.1 559.2 1427.9 553.933 1428.57 550.2C1429.23 546.467 1427.43 543.733 1423.17 542V521.4H1443.77V540.2Z" fill="#823333" fill-opacity="0.25"/>
<path d="M2.23047 796H94.0305C94.0305 803.6 92.6305 810.8 89.8305 817.6C87.1638 824.267 83.4305 830.2 78.6305 835.4C73.8305 840.6 68.2305 844.8 61.8305 848C55.4305 851.2 48.5638 853.133 41.2305 853.8V936H21.0305V812.8C20.8971 810.933 20.2305 809.067 19.0305 807.2C17.8305 805.2 14.9638 803.667 10.4305 802.6C9.09714 802.333 7.89714 802.133 6.83047 802C5.89714 801.733 5.03047 801.533 4.23047 801.4C3.43047 801.267 2.7638 801.133 2.23047 801V796ZM41.2305 833.6C46.9638 832.933 52.1638 831 56.8305 827.8C61.4971 824.6 65.3638 820.667 68.4305 816H41.2305V833.6ZM181.712 854.4L166.512 877.4L181.712 936H161.112L151.712 900.2L137.512 921.6L121.312 898.2L111.912 936H90.7117L106.112 876.6L90.5117 854.4H96.9117L108.712 865.8L121.112 815.8C121.245 815.4 121.312 814.6 121.312 813.4C121.445 812.067 121.178 810.667 120.512 809.2C119.978 807.733 118.912 806.333 117.312 805C115.845 803.667 113.578 802.8 110.512 802.4C107.578 802 105.178 801.733 103.312 801.6C101.578 801.467 100.178 801.333 99.1117 801.2C97.9117 801.067 96.9784 801 96.3117 801V796H145.912L163.912 866.6L175.912 854.4H181.712ZM137.312 893.2L147.312 883.2L136.112 838.8L125.312 881.8L137.312 893.2ZM208.676 796V936H188.676V796H208.676ZM240.907 807.8L241.507 936H220.707V796H223.307C233.307 796 242.707 797.933 251.507 801.8C260.44 805.667 268.174 810.933 274.707 817.6C281.24 824.133 286.374 831.867 290.107 840.8C293.974 849.733 295.907 859.2 295.907 869.2V936H276.107V869.2C276.107 863.333 275.24 857.2 273.507 850.8C271.774 844.4 269.307 838.333 266.107 832.6C263.04 826.733 259.307 821.6 254.907 817.2C250.64 812.667 245.974 809.533 240.907 807.8ZM373.91 796V936H353.91V796H373.91ZM445.741 837.2C454.941 841.067 462.475 847.333 468.341 856C474.208 864.667 477.141 874.2 477.141 884.6C477.141 891.667 475.741 898.333 472.941 904.6C470.275 910.867 466.608 916.333 461.941 921C457.408 925.667 452.008 929.333 445.741 932C439.608 934.667 433.008 936 425.941 936H386.141V891.4H391.141C391.141 892.2 391.141 893.4 391.141 895C391.275 896.6 391.408 898.333 391.541 900.2C391.808 901.933 392.141 903.733 392.541 905.6C392.941 907.333 393.408 908.8 393.941 910L425.941 851.8C420.075 849.933 414.675 847.2 409.741 843.6C404.941 839.867 400.741 835.533 397.141 830.6C393.675 825.667 390.941 820.267 388.941 814.4C386.941 808.533 385.941 802.4 385.941 796H452.341C455.408 796 457.608 794.733 458.941 792.2L462.541 785.8L471.341 790.8L445.741 837.2ZM435.941 833.6L445.941 816.2H411.541C414.208 820.733 417.608 824.533 421.741 827.6C425.875 830.667 430.608 832.667 435.941 833.6ZM425.941 915.8C430.208 915.8 434.208 915 437.941 913.4C441.675 911.667 444.941 909.4 447.741 906.6C450.541 903.8 452.741 900.533 454.341 896.8C456.075 892.933 456.941 888.867 456.941 884.6C456.941 877.933 454.941 871.867 450.941 866.4C447.075 860.933 442.075 857.067 435.941 854.8L402.141 915.8H425.941ZM619.407 854.4L604.207 877.4L619.407 936H598.807L589.407 900.2L575.207 921.6L559.007 898.2L549.607 936H528.407L543.807 876.6L528.207 854.4H534.607L546.407 865.8L558.807 815.8C558.94 815.4 559.007 814.6 559.007 813.4C559.14 812.067 558.874 810.667 558.207 809.2C557.674 807.733 556.607 806.333 555.007 805C553.54 803.667 551.274 802.8 548.207 802.4C545.274 802 542.874 801.733 541.007 801.6C539.274 801.467 537.874 801.333 536.807 801.2C535.607 801.067 534.674 801 534.007 801V796H583.607L601.607 866.6L613.607 854.4H619.407ZM575.007 893.2L585.007 883.2L573.807 838.8L563.007 881.8L575.007 893.2ZM646.571 807.8L647.171 936H626.371V796H628.971C638.971 796 648.371 797.933 657.171 801.8C666.104 805.667 673.838 810.933 680.371 817.6C686.904 824.133 692.038 831.867 695.771 840.8C699.638 849.733 701.571 859.2 701.571 869.2V936H681.771V869.2C681.771 863.333 680.904 857.2 679.171 850.8C677.438 844.4 674.971 838.333 671.771 832.6C668.704 826.733 664.971 821.6 660.571 817.2C656.304 812.667 651.638 809.533 646.571 807.8ZM834.774 796V936H832.174C822.174 936 812.708 934.067 803.774 930.2C794.974 926.333 787.308 921.133 780.774 914.6C774.241 907.933 769.041 900.2 765.174 891.4C761.441 882.467 759.574 873 759.574 863V796H834.774ZM779.374 816V863C779.374 868.733 780.241 874.267 781.974 879.6C783.708 884.8 786.108 889.6 789.174 894C792.374 898.267 796.108 902 800.374 905.2C804.774 908.4 809.508 910.933 814.574 912.8V816H779.374ZM923.084 796V841.2H917.884C917.75 840.667 917.617 839.8 917.484 838.6C917.35 837.533 917.217 836.133 917.084 834.4C916.95 832.533 916.75 830.133 916.484 827.2C916.217 824.667 915.484 822.667 914.284 821.2C913.217 819.733 911.95 818.6 910.484 817.8C909.15 817 907.817 816.533 906.484 816.4C905.15 816.133 904.15 816 903.484 816H867.284V828C867.55 829.867 868.35 832.2 869.684 835C871.017 837.667 873.817 839.2 878.084 839.6C881.017 839.867 884.017 840.133 887.084 840.4C890.15 840.533 893.017 840.667 895.684 840.8C898.884 840.933 901.95 841.067 904.884 841.2V851.2H867.284V918C867.284 919.733 868.017 921.933 869.484 924.6C870.95 927.267 873.817 928.867 878.084 929.4L892.084 931V936H846.684V796H923.084ZM1011.56 796V841.2H1006.36C1006.23 840.667 1006.09 839.8 1005.96 838.6C1005.83 837.533 1005.69 836.133 1005.56 834.4C1005.43 832.533 1005.23 830.133 1004.96 827.2C1004.69 824.667 1003.96 822.667 1002.76 821.2C1001.69 819.733 1000.43 818.6 998.96 817.8C997.627 817 996.293 816.533 994.96 816.4C993.627 816.133 992.627 816 991.96 816H955.76V828C956.027 829.867 956.827 832.2 958.16 835C959.493 837.667 962.293 839.2 966.56 839.6C969.493 839.867 972.493 840.133 975.56 840.4C978.627 840.533 981.493 840.667 984.16 840.8C987.36 840.933 990.427 841.067 993.36 841.2V851.2H955.76V918C955.76 919.733 956.493 921.933 957.96 924.6C959.427 927.267 962.293 928.867 966.56 929.4L980.56 931V936H935.16V796H1011.56ZM1081.64 851.2H1044.04V863C1044.04 868.867 1044.97 874.467 1046.84 879.8C1048.7 885 1051.24 889.8 1054.44 894.2C1057.64 898.467 1061.44 902.267 1065.84 905.6C1070.24 908.8 1075.04 911.267 1080.24 913C1081.3 913.267 1082.57 913.4 1084.04 913.4C1085.9 913.4 1087.77 912.867 1089.64 911.8C1091.64 910.733 1092.84 908.4 1093.24 904.8C1093.5 902.933 1093.7 901.2 1093.84 899.6C1093.97 897.867 1094.17 896.333 1094.44 895C1094.57 893.533 1094.7 892.133 1094.84 890.8H1099.84V936H1097.24C1088.84 936 1080.3 934.333 1071.64 931C1062.97 927.533 1055.1 922.667 1048.04 916.4C1040.97 910.133 1035.17 902.533 1030.64 893.6C1026.1 884.533 1023.77 874.333 1023.64 863V796H1099.84V841.2H1094.64C1094.64 840.667 1094.57 839.8 1094.44 838.6C1094.3 837.533 1094.1 836.133 1093.84 834.4C1093.7 832.533 1093.5 830.133 1093.24 827.2C1092.97 824.667 1092.24 822.667 1091.04 821.2C1089.97 819.733 1088.7 818.6 1087.24 817.8C1085.9 817 1084.57 816.533 1083.24 816.4C1081.9 816.133 1080.9 816 1080.24 816H1044.04V826.4C1044.17 826.267 1044.24 826.867 1044.24 828.2C1044.24 829.4 1044.5 830.8 1045.04 832.4C1045.7 834 1046.77 835.533 1048.24 837C1049.7 838.333 1051.97 839.2 1055.04 839.6C1057.97 839.867 1060.97 840.133 1064.04 840.4C1067.24 840.533 1070.1 840.667 1072.64 840.8C1075.7 840.933 1078.7 841.067 1081.64 841.2V851.2ZM1173.52 843.8C1181.12 849.267 1187.25 856.133 1191.92 864.4C1196.58 872.667 1198.92 881.8 1198.92 891.8V936H1178.72V891.8C1178.72 887 1177.85 882.467 1176.12 878.2C1174.52 873.933 1172.18 870.133 1169.12 866.8C1166.18 863.467 1162.72 860.733 1158.72 858.6C1154.85 856.467 1150.58 855.133 1145.92 854.6V936H1125.72V812.8C1125.45 810.933 1124.72 809.067 1123.52 807.2C1122.45 805.2 1119.58 803.667 1114.92 802.6C1112.78 802.2 1110.78 801.8 1108.92 801.4C1108.12 801.267 1107.45 801.133 1106.92 801V796H1198.92C1198.92 806 1196.58 815.2 1191.92 823.6C1187.25 831.867 1181.12 838.6 1173.52 843.8ZM1145.92 816V833.6C1151.65 832.933 1156.85 831 1161.52 827.8C1166.18 824.6 1170.05 820.667 1173.12 816H1145.92ZM1230.94 796V936H1210.94V796H1230.94ZM1263.17 807.8L1263.77 936H1242.97V796H1245.57C1255.57 796 1264.97 797.933 1273.77 801.8C1282.71 805.667 1290.44 810.933 1296.97 817.6C1303.51 824.133 1308.64 831.867 1312.37 840.8C1316.24 849.733 1318.17 859.2 1318.17 869.2V936H1298.37V869.2C1298.37 863.333 1297.51 857.2 1295.77 850.8C1294.04 844.4 1291.57 838.333 1288.37 832.6C1285.31 826.733 1281.57 821.6 1277.17 817.2C1272.91 812.667 1268.24 809.533 1263.17 807.8ZM1403.68 936C1393.55 936 1384.02 934.067 1375.08 930.2C1366.15 926.333 1358.35 921.067 1351.68 914.4C1345.02 907.733 1339.75 900 1335.88 891.2C1332.02 882.267 1330.08 872.733 1330.08 862.6V796H1406.08V841.2H1401.08C1401.08 840.667 1401.02 839.8 1400.88 838.6C1400.75 837.533 1400.55 836.133 1400.28 834.4C1400.15 832.667 1399.95 830.333 1399.68 827.4C1399.42 824.733 1398.68 822.667 1397.48 821.2C1396.42 819.733 1395.15 818.667 1393.68 818C1392.35 817.333 1391.02 816.933 1389.68 816.8C1388.35 816.533 1387.35 816.4 1386.68 816.4H1350.48V862.6C1350.48 868.333 1351.35 873.867 1353.08 879.2C1354.82 884.4 1357.28 889.2 1360.48 893.6C1363.68 898 1367.42 901.867 1371.68 905.2C1376.08 908.4 1380.88 910.933 1386.08 912.8V875.4C1386.08 875 1385.95 874.2 1385.68 873C1385.55 871.667 1385.15 870.333 1384.48 869C1383.82 867.533 1382.75 866.267 1381.28 865.2C1379.82 864 1377.75 863.2 1375.08 862.8L1362.48 861.2V851.2H1406.08V936H1403.68ZM1443.77 851.2V871.6H1423.17V851.2H1443.77ZM1443.77 934.2L1433.17 960H1423.17C1426.1 953.2 1427.9 947.933 1428.57 944.2C1429.23 940.467 1427.43 937.733 1423.17 936V915.4H1443.77V934.2Z" fill="#823333" fill-opacity="0.25"/>
<path d="M2.23047 11.0001H94.0305C94.0305 18.6001 92.6305 25.8001 89.8305 32.6001C87.1638 39.2668 83.4305 45.2001 78.6305 50.4001C73.8305 55.6001 68.2305 59.8001 61.8305 63.0001C55.4305 66.2001 48.5638 68.1334 41.2305 68.8001V151H21.0305V27.8001C20.8971 25.9334 20.2305 24.0668 19.0305 22.2001C17.8305 20.2001 14.9638 18.6668 10.4305 17.6001C9.09714 17.3334 7.89714 17.1334 6.83047 17.0001C5.89714 16.7334 5.03047 16.5334 4.23047 16.4001C3.43047 16.2668 2.7638 16.1334 2.23047 16.0001V11.0001ZM41.2305 48.6001C46.9638 47.9334 52.1638 46.0001 56.8305 42.8001C61.4971 39.6001 65.3638 35.6668 68.4305 31.0001H41.2305V48.6001ZM181.712 69.4001L166.512 92.4001L181.712 151H161.112L151.712 115.2L137.512 136.6L121.312 113.2L111.912 151H90.7117L106.112 91.6001L90.5117 69.4001H96.9117L108.712 80.8001L121.112 30.8001C121.245 30.4001 121.312 29.6001 121.312 28.4001C121.445 27.0668 121.178 25.6668 120.512 24.2001C119.978 22.7334 118.912 21.3334 117.312 20.0001C115.845 18.6668 113.578 17.8001 110.512 17.4001C107.578 17.0001 105.178 16.7334 103.312 16.6001C101.578 16.4668 100.178 16.3334 99.1117 16.2001C97.9117 16.0668 96.9784 16.0001 96.3117 16.0001V11.0001H145.912L163.912 81.6001L175.912 69.4001H181.712ZM137.312 108.2L147.312 98.2001L136.112 53.8001L125.312 96.8001L137.312 108.2ZM208.676 11.0001V151H188.676V11.0001H208.676ZM240.907 22.8001L241.507 151H220.707V11.0001H223.307C233.307 11.0001 242.707 12.9334 251.507 16.8001C260.44 20.6668 268.174 25.9334 274.707 32.6001C281.24 39.1334 286.374 46.8668 290.107 55.8001C293.974 64.7334 295.907 74.2001 295.907 84.2001V151H276.107V84.2001C276.107 78.3334 275.24 72.2001 273.507 65.8001C271.774 59.4001 269.307 53.3334 266.107 47.6001C263.04 41.7334 259.307 36.6001 254.907 32.2001C250.64 27.6668 245.974 24.5334 240.907 22.8001ZM373.91 11.0001V151H353.91V11.0001H373.91ZM445.741 52.2001C454.941 56.0668 462.475 62.3334 468.341 71.0001C474.208 79.6668 477.141 89.2001 477.141 99.6001C477.141 106.667 475.741 113.333 472.941 119.6C470.275 125.867 466.608 131.333 461.941 136C457.408 140.667 452.008 144.333 445.741 147C439.608 149.667 433.008 151 425.941 151H386.141V106.4H391.141C391.141 107.2 391.141 108.4 391.141 110C391.275 111.6 391.408 113.333 391.541 115.2C391.808 116.933 392.141 118.733 392.541 120.6C392.941 122.333 393.408 123.8 393.941 125L425.941 66.8001C420.075 64.9334 414.675 62.2001 409.741 58.6001C404.941 54.8668 400.741 50.5334 397.141 45.6001C393.675 40.6668 390.941 35.2668 388.941 29.4001C386.941 23.5334 385.941 17.4001 385.941 11.0001H452.341C455.408 11.0001 457.608 9.73338 458.941 7.20005L462.541 0.800049L471.341 5.80006L445.741 52.2001ZM435.941 48.6001L445.941 31.2001H411.541C414.208 35.7334 417.608 39.5334 421.741 42.6001C425.875 45.6668 430.608 47.6668 435.941 48.6001ZM425.941 130.8C430.208 130.8 434.208 130 437.941 128.4C441.675 126.667 444.941 124.4 447.741 121.6C450.541 118.8 452.741 115.533 454.341 111.8C456.075 107.933 456.941 103.867 456.941 99.6001C456.941 92.9334 454.941 86.8668 450.941 81.4001C447.075 75.9334 442.075 72.0668 435.941 69.8001L402.141 130.8H425.941ZM619.407 69.4001L604.207 92.4001L619.407 151H598.807L589.407 115.2L575.207 136.6L559.007 113.2L549.607 151H528.407L543.807 91.6001L528.207 69.4001H534.607L546.407 80.8001L558.807 30.8001C558.94 30.4001 559.007 29.6001 559.007 28.4001C559.14 27.0668 558.874 25.6668 558.207 24.2001C557.674 22.7334 556.607 21.3334 555.007 20.0001C553.54 18.6668 551.274 17.8001 548.207 17.4001C545.274 17.0001 542.874 16.7334 541.007 16.6001C539.274 16.4668 537.874 16.3334 536.807 16.2001C535.607 16.0668 534.674 16.0001 534.007 16.0001V11.0001H583.607L601.607 81.6001L613.607 69.4001H619.407ZM575.007 108.2L585.007 98.2001L573.807 53.8001L563.007 96.8001L575.007 108.2ZM646.571 22.8001L647.171 151H626.371V11.0001H628.971C638.971 11.0001 648.371 12.9334 657.171 16.8001C666.104 20.6668 673.838 25.9334 680.371 32.6001C686.904 39.1334 692.038 46.8668 695.771 55.8001C699.638 64.7334 701.571 74.2001 701.571 84.2001V151H681.771V84.2001C681.771 78.3334 680.904 72.2001 679.171 65.8001C677.438 59.4001 674.971 53.3334 671.771 47.6001C668.704 41.7334 664.971 36.6001 660.571 32.2001C656.304 27.6668 651.638 24.5334 646.571 22.8001ZM834.774 11.0001V151H832.174C822.174 151 812.708 149.067 803.774 145.2C794.974 141.333 787.308 136.133 780.774 129.6C774.241 122.933 769.041 115.2 765.174 106.4C761.441 97.4668 759.574 88.0001 759.574 78.0001V11.0001H834.774ZM779.374 31.0001V78.0001C779.374 83.7334 780.241 89.2668 781.974 94.6001C783.708 99.8001 786.108 104.6 789.174 109C792.374 113.267 796.108 117 800.374 120.2C804.774 123.4 809.508 125.933 814.574 127.8V31.0001H779.374ZM923.084 11.0001V56.2001H917.884C917.75 55.6668 917.617 54.8001 917.484 53.6001C917.35 52.5334 917.217 51.1334 917.084 49.4001C916.95 47.5334 916.75 45.1334 916.484 42.2001C916.217 39.6668 915.484 37.6668 914.284 36.2001C913.217 34.7334 911.95 33.6001 910.484 32.8001C909.15 32.0001 907.817 31.5334 906.484 31.4001C905.15 31.1334 904.15 31.0001 903.484 31.0001H867.284V43.0001C867.55 44.8668 868.35 47.2001 869.684 50.0001C871.017 52.6668 873.817 54.2001 878.084 54.6001C881.017 54.8668 884.017 55.1334 887.084 55.4001C890.15 55.5334 893.017 55.6668 895.684 55.8001C898.884 55.9334 901.95 56.0668 904.884 56.2001V66.2001H867.284V133C867.284 134.733 868.017 136.933 869.484 139.6C870.95 142.267 873.817 143.867 878.084 144.4L892.084 146V151H846.684V11.0001H923.084ZM1011.56 11.0001V56.2001H1006.36C1006.23 55.6668 1006.09 54.8001 1005.96 53.6001C1005.83 52.5334 1005.69 51.1334 1005.56 49.4001C1005.43 47.5334 1005.23 45.1334 1004.96 42.2001C1004.69 39.6668 1003.96 37.6668 1002.76 36.2001C1001.69 34.7334 1000.43 33.6001 998.96 32.8001C997.627 32.0001 996.293 31.5334 994.96 31.4001C993.627 31.1334 992.627 31.0001 991.96 31.0001H955.76V43.0001C956.027 44.8668 956.827 47.2001 958.16 50.0001C959.493 52.6668 962.293 54.2001 966.56 54.6001C969.493 54.8668 972.493 55.1334 975.56 55.4001C978.627 55.5334 981.493 55.6668 984.16 55.8001C987.36 55.9334 990.427 56.0668 993.36 56.2001V66.2001H955.76V133C955.76 134.733 956.493 136.933 957.96 139.6C959.427 142.267 962.293 143.867 966.56 144.4L980.56 146V151H935.16V11.0001H1011.56ZM1081.64 66.2001H1044.04V78.0001C1044.04 83.8668 1044.97 89.4668 1046.84 94.8001C1048.7 100 1051.24 104.8 1054.44 109.2C1057.64 113.467 1061.44 117.267 1065.84 120.6C1070.24 123.8 1075.04 126.267 1080.24 128C1081.3 128.267 1082.57 128.4 1084.04 128.4C1085.9 128.4 1087.77 127.867 1089.64 126.8C1091.64 125.733 1092.84 123.4 1093.24 119.8C1093.5 117.933 1093.7 116.2 1093.84 114.6C1093.97 112.867 1094.17 111.333 1094.44 110C1094.57 108.533 1094.7 107.133 1094.84 105.8H1099.84V151H1097.24C1088.84 151 1080.3 149.333 1071.64 146C1062.97 142.533 1055.1 137.667 1048.04 131.4C1040.97 125.133 1035.17 117.533 1030.64 108.6C1026.1 99.5334 1023.77 89.3334 1023.64 78.0001V11.0001H1099.84V56.2001H1094.64C1094.64 55.6668 1094.57 54.8001 1094.44 53.6001C1094.3 52.5334 1094.1 51.1334 1093.84 49.4001C1093.7 47.5334 1093.5 45.1334 1093.24 42.2001C1092.97 39.6668 1092.24 37.6668 1091.04 36.2001C1089.97 34.7334 1088.7 33.6001 1087.24 32.8001C1085.9 32.0001 1084.57 31.5334 1083.24 31.4001C1081.9 31.1334 1080.9 31.0001 1080.24 31.0001H1044.04V41.4001C1044.17 41.2668 1044.24 41.8668 1044.24 43.2001C1044.24 44.4001 1044.5 45.8001 1045.04 47.4001C1045.7 49.0001 1046.77 50.5334 1048.24 52.0001C1049.7 53.3334 1051.97 54.2001 1055.04 54.6001C1057.97 54.8668 1060.97 55.1334 1064.04 55.4001C1067.24 55.5334 1070.1 55.6668 1072.64 55.8001C1075.7 55.9334 1078.7 56.0668 1081.64 56.2001V66.2001ZM1173.52 58.8001C1181.12 64.2668 1187.25 71.1334 1191.92 79.4001C1196.58 87.6668 1198.92 96.8001 1198.92 106.8V151H1178.72V106.8C1178.72 102 1177.85 97.4668 1176.12 93.2001C1174.52 88.9334 1172.18 85.1334 1169.12 81.8001C1166.18 78.4668 1162.72 75.7334 1158.72 73.6001C1154.85 71.4668 1150.58 70.1334 1145.92 69.6001V151H1125.72V27.8001C1125.45 25.9334 1124.72 24.0668 1123.52 22.2001C1122.45 20.2001 1119.58 18.6668 1114.92 17.6001C1112.78 17.2001 1110.78 16.8001 1108.92 16.4001C1108.12 16.2668 1107.45 16.1334 1106.92 16.0001V11.0001H1198.92C1198.92 21.0001 1196.58 30.2001 1191.92 38.6001C1187.25 46.8668 1181.12 53.6001 1173.52 58.8001ZM1145.92 31.0001V48.6001C1151.65 47.9334 1156.85 46.0001 1161.52 42.8001C1166.18 39.6001 1170.05 35.6668 1173.12 31.0001H1145.92ZM1230.94 11.0001V151H1210.94V11.0001H1230.94ZM1263.17 22.8001L1263.77 151H1242.97V11.0001H1245.57C1255.57 11.0001 1264.97 12.9334 1273.77 16.8001C1282.71 20.6668 1290.44 25.9334 1296.97 32.6001C1303.51 39.1334 1308.64 46.8668 1312.37 55.8001C1316.24 64.7334 1318.17 74.2001 1318.17 84.2001V151H1298.37V84.2001C1298.37 78.3334 1297.51 72.2001 1295.77 65.8001C1294.04 59.4001 1291.57 53.3334 1288.37 47.6001C1285.31 41.7334 1281.57 36.6001 1277.17 32.2001C1272.91 27.6668 1268.24 24.5334 1263.17 22.8001ZM1403.68 151C1393.55 151 1384.02 149.067 1375.08 145.2C1366.15 141.333 1358.35 136.067 1351.68 129.4C1345.02 122.733 1339.75 115 1335.88 106.2C1332.02 97.2668 1330.08 87.7334 1330.08 77.6001V11.0001H1406.08V56.2001H1401.08C1401.08 55.6668 1401.02 54.8001 1400.88 53.6001C1400.75 52.5334 1400.55 51.1334 1400.28 49.4001C1400.15 47.6668 1399.95 45.3334 1399.68 42.4001C1399.42 39.7334 1398.68 37.6668 1397.48 36.2001C1396.42 34.7334 1395.15 33.6668 1393.68 33.0001C1392.35 32.3334 1391.02 31.9334 1389.68 31.8001C1388.35 31.5334 1387.35 31.4001 1386.68 31.4001H1350.48V77.6001C1350.48 83.3334 1351.35 88.8668 1353.08 94.2001C1354.82 99.4001 1357.28 104.2 1360.48 108.6C1363.68 113 1367.42 116.867 1371.68 120.2C1376.08 123.4 1380.88 125.933 1386.08 127.8V90.4001C1386.08 90.0001 1385.95 89.2001 1385.68 88.0001C1385.55 86.6668 1385.15 85.3334 1384.48 84.0001C1383.82 82.5334 1382.75 81.2668 1381.28 80.2001C1379.82 79.0001 1377.75 78.2001 1375.08 77.8001L1362.48 76.2001V66.2001H1406.08V151H1403.68ZM1443.77 66.2001V86.6001H1423.17V66.2001H1443.77ZM1443.77 149.2L1433.17 175H1423.17C1426.1 168.2 1427.9 162.933 1428.57 159.2C1429.23 155.467 1427.43 152.733 1423.17 151V130.4H1443.77V149.2Z" fill="#823333" fill-opacity="0.25"/>
<path d="M6.46484 348V208H82.6648V275.4C82.6648 284.6 81.0648 293.333 77.8648 301.6C74.6648 309.733 70.2648 317.067 64.6648 323.6C59.0648 330 52.3982 335.4 44.6648 339.8C37.0648 344.067 28.7315 346.8 19.6648 348H6.46484ZM62.4648 228.2H26.8648V325.6C32.0648 323.733 36.7982 321.2 41.0648 318C45.4648 314.667 49.2648 310.8 52.4648 306.4C55.6648 302 58.1315 297.2 59.8648 292C61.5982 286.667 62.4648 281.133 62.4648 275.4V228.2ZM152.746 263.2H115.146V275C115.146 280.867 116.079 286.467 117.946 291.8C119.813 297 122.346 301.8 125.546 306.2C128.746 310.467 132.546 314.267 136.946 317.6C141.346 320.8 146.146 323.267 151.346 325C152.413 325.267 153.679 325.4 155.146 325.4C157.013 325.4 158.879 324.867 160.746 323.8C162.746 322.733 163.946 320.4 164.346 316.8C164.613 314.933 164.813 313.2 164.946 311.6C165.079 309.867 165.279 308.333 165.546 307C165.679 305.533 165.813 304.133 165.946 302.8H170.946V348H168.346C159.946 348 151.413 346.333 142.746 343C134.079 339.533 126.213 334.667 119.146 328.4C112.079 322.133 106.279 314.533 101.746 305.6C97.2128 296.533 94.8794 286.333 94.7461 275V208H170.946V253.2H165.746C165.746 252.667 165.679 251.8 165.546 250.6C165.413 249.533 165.213 248.133 164.946 246.4C164.813 244.533 164.613 242.133 164.346 239.2C164.079 236.667 163.346 234.667 162.146 233.2C161.079 231.733 159.813 230.6 158.346 229.8C157.013 229 155.679 228.533 154.346 228.4C153.013 228.133 152.013 228 151.346 228H115.146V238.4C115.279 238.267 115.346 238.867 115.346 240.2C115.346 241.4 115.613 242.8 116.146 244.4C116.813 246 117.879 247.533 119.346 249C120.813 250.333 123.079 251.2 126.146 251.6C129.079 251.867 132.079 252.133 135.146 252.4C138.346 252.533 141.213 252.667 143.746 252.8C146.813 252.933 149.813 253.067 152.746 253.2V263.2ZM269.227 266.4L254.027 289.4L269.227 348H248.627L239.227 312.2L225.027 333.6L208.827 310.2L199.427 348H178.227L193.627 288.6L178.027 266.4H184.427L196.227 277.8L208.627 227.8C208.761 227.4 208.827 226.6 208.827 225.4C208.961 224.067 208.694 222.667 208.027 221.2C207.494 219.733 206.427 218.333 204.827 217C203.361 215.667 201.094 214.8 198.027 214.4C195.094 214 192.694 213.733 190.827 213.6C189.094 213.467 187.694 213.333 186.627 213.2C185.427 213.067 184.494 213 183.827 213V208H233.427L251.427 278.6L263.427 266.4H269.227ZM224.827 305.2L234.827 295.2L223.627 250.8L212.827 293.8L224.827 305.2ZM262.598 208H354.398V245.8H349.398C349.264 246.2 349.131 246.2 348.998 245.8C348.864 245.4 348.664 244.6 348.398 243.4C348.264 242.067 348.064 239.933 347.798 237C347.398 233.4 346.198 231.067 344.198 230C342.198 228.8 340.264 228.2 338.398 228.2H301.598V348H281.598V224C281.598 222.267 280.864 220.467 279.398 218.6C277.931 216.733 275.064 215.333 270.798 214.4C269.598 214.133 268.464 213.933 267.398 213.8C266.464 213.667 265.598 213.533 264.798 213.4C263.998 213.267 263.264 213.133 262.598 213V208ZM427.473 253V208H447.873V348H427.473V314C427.473 312.133 426.606 310.4 424.873 308.8C423.139 307.2 420.673 306.2 417.473 305.8C414.539 305.4 411.473 305.133 408.273 305C405.206 304.733 402.339 304.6 399.673 304.6C397.139 304.467 395.006 304.4 393.273 304.4C391.539 304.267 390.673 304.2 390.673 304.2V348H370.473V208H390.673V241.6C390.673 243.467 391.406 245.467 392.873 247.6C394.473 249.733 397.206 251 401.073 251.4C403.739 251.8 406.473 252.133 409.273 252.4C412.206 252.533 414.873 252.667 417.273 252.8C419.806 252.8 422.006 252.867 423.873 253C425.739 253 426.939 253 427.473 253ZM427.473 263.2H390.673V273.8H427.473V263.2ZM390.673 294.2H427.473V284.2H390.673V294.2ZM531.934 208V348H511.934V208H531.934ZM603.765 249.2C612.965 253.067 620.498 259.333 626.365 268C632.232 276.667 635.165 286.2 635.165 296.6C635.165 303.667 633.765 310.333 630.965 316.6C628.298 322.867 624.632 328.333 619.965 333C615.432 337.667 610.032 341.333 603.765 344C597.632 346.667 591.032 348 583.965 348H544.165V303.4H549.165C549.165 304.2 549.165 305.4 549.165 307C549.298 308.6 549.432 310.333 549.565 312.2C549.832 313.933 550.165 315.733 550.565 317.6C550.965 319.333 551.432 320.8 551.965 322L583.965 263.8C578.098 261.933 572.698 259.2 567.765 255.6C562.965 251.867 558.765 247.533 555.165 242.6C551.698 237.667 548.965 232.267 546.965 226.4C544.965 220.533 543.965 214.4 543.965 208H610.365C613.432 208 615.632 206.733 616.965 204.2L620.565 197.8L629.365 202.8L603.765 249.2ZM593.965 245.6L603.965 228.2H569.565C572.232 232.733 575.632 236.533 579.765 239.6C583.898 242.667 588.632 244.667 593.965 245.6ZM583.965 327.8C588.232 327.8 592.232 327 595.965 325.4C599.698 323.667 602.965 321.4 605.765 318.6C608.565 315.8 610.765 312.533 612.365 308.8C614.098 304.933 614.965 300.867 614.965 296.6C614.965 289.933 612.965 283.867 608.965 278.4C605.098 272.933 600.098 269.067 593.965 266.8L560.165 327.8H583.965ZM777.43 266.4L762.23 289.4L777.43 348H756.83L747.43 312.2L733.23 333.6L717.03 310.2L707.63 348H686.43L701.83 288.6L686.23 266.4H692.63L704.43 277.8L716.83 227.8C716.964 227.4 717.03 226.6 717.03 225.4C717.164 224.067 716.897 222.667 716.23 221.2C715.697 219.733 714.63 218.333 713.03 217C711.564 215.667 709.297 214.8 706.23 214.4C703.297 214 700.897 213.733 699.03 213.6C697.297 213.467 695.897 213.333 694.83 213.2C693.63 213.067 692.697 213 692.03 213V208H741.63L759.63 278.6L771.63 266.4H777.43ZM733.03 305.2L743.03 295.2L731.83 250.8L721.03 293.8L733.03 305.2ZM904.088 348C893.955 348 884.422 346.067 875.488 342.2C866.555 338.333 858.755 333.067 852.088 326.4C845.422 319.733 840.155 312 836.288 303.2C832.422 294.267 830.488 284.733 830.488 274.6V208H906.488V253.2H901.488C901.488 252.667 901.422 251.8 901.288 250.6C901.155 249.533 900.955 248.133 900.688 246.4C900.555 244.667 900.355 242.333 900.088 239.4C899.822 236.733 899.088 234.667 897.888 233.2C896.822 231.733 895.555 230.667 894.088 230C892.755 229.333 891.422 228.933 890.088 228.8C888.755 228.533 887.755 228.4 887.088 228.4H850.888V274.6C850.888 280.333 851.755 285.867 853.488 291.2C855.222 296.4 857.688 301.2 860.888 305.6C864.088 310 867.822 313.867 872.088 317.2C876.488 320.4 881.288 322.933 886.488 324.8V287.4C886.488 287 886.355 286.2 886.088 285C885.955 283.667 885.555 282.333 884.888 281C884.222 279.533 883.155 278.267 881.688 277.2C880.222 276 878.155 275.2 875.488 274.8L862.888 273.2V263.2H906.488V348H904.088ZM938.574 208V348H918.574V208H938.574ZM1027.01 208V253.2H1021.81C1021.67 252.667 1021.54 251.8 1021.41 250.6C1021.27 249.533 1021.14 248.133 1021.01 246.4C1020.87 244.533 1020.67 242.133 1020.41 239.2C1020.14 236.667 1019.41 234.667 1018.21 233.2C1017.14 231.733 1015.87 230.6 1014.41 229.8C1013.07 229 1011.74 228.533 1010.41 228.4C1009.07 228.133 1008.07 228 1007.41 228H971.205V240C971.472 241.867 972.272 244.2 973.605 247C974.939 249.667 977.739 251.2 982.005 251.6C984.939 251.867 987.939 252.133 991.005 252.4C994.072 252.533 996.939 252.667 999.605 252.8C1002.81 252.933 1005.87 253.067 1008.81 253.2V263.2H971.205V330C971.205 331.733 971.939 333.933 973.405 336.6C974.872 339.267 977.739 340.867 982.005 341.4L996.005 343V348H950.605V208H1027.01ZM1034.08 208H1125.88V245.8H1120.88C1120.75 246.2 1120.62 246.2 1120.48 245.8C1120.35 245.4 1120.15 244.6 1119.88 243.4C1119.75 242.067 1119.55 239.933 1119.28 237C1118.88 233.4 1117.68 231.067 1115.68 230C1113.68 228.8 1111.75 228.2 1109.88 228.2H1073.08V348H1053.08V224C1053.08 222.267 1052.35 220.467 1050.88 218.6C1049.42 216.733 1046.55 215.333 1042.28 214.4C1041.08 214.133 1039.95 213.933 1038.88 213.8C1037.95 213.667 1037.08 213.533 1036.28 213.4C1035.48 213.267 1034.75 213.133 1034.08 213V208ZM1161.56 327.6V348H1140.96V327.6H1161.56Z" fill="#823333" fill-opacity="0.25"/>
<path d="M6.46484 739V599H82.6648V666.4C82.6648 675.6 81.0648 684.333 77.8648 692.6C74.6648 700.733 70.2648 708.067 64.6648 714.6C59.0648 721 52.3982 726.4 44.6648 730.8C37.0648 735.067 28.7315 737.8 19.6648 739H6.46484ZM62.4648 619.2H26.8648V716.6C32.0648 714.733 36.7982 712.2 41.0648 709C45.4648 705.667 49.2648 701.8 52.4648 697.4C55.6648 693 58.1315 688.2 59.8648 683C61.5982 677.667 62.4648 672.133 62.4648 666.4V619.2ZM152.746 654.2H115.146V666C115.146 671.867 116.079 677.467 117.946 682.8C119.813 688 122.346 692.8 125.546 697.2C128.746 701.467 132.546 705.267 136.946 708.6C141.346 711.8 146.146 714.267 151.346 716C152.413 716.267 153.679 716.4 155.146 716.4C157.013 716.4 158.879 715.867 160.746 714.8C162.746 713.733 163.946 711.4 164.346 707.8C164.613 705.933 164.813 704.2 164.946 702.6C165.079 700.867 165.279 699.333 165.546 698C165.679 696.533 165.813 695.133 165.946 693.8H170.946V739H168.346C159.946 739 151.413 737.333 142.746 734C134.079 730.533 126.213 725.667 119.146 719.4C112.079 713.133 106.279 705.533 101.746 696.6C97.2128 687.533 94.8794 677.333 94.7461 666V599H170.946V644.2H165.746C165.746 643.667 165.679 642.8 165.546 641.6C165.413 640.533 165.213 639.133 164.946 637.4C164.813 635.533 164.613 633.133 164.346 630.2C164.079 627.667 163.346 625.667 162.146 624.2C161.079 622.733 159.813 621.6 158.346 620.8C157.013 620 155.679 619.533 154.346 619.4C153.013 619.133 152.013 619 151.346 619H115.146V629.4C115.279 629.267 115.346 629.867 115.346 631.2C115.346 632.4 115.613 633.8 116.146 635.4C116.813 637 117.879 638.533 119.346 640C120.813 641.333 123.079 642.2 126.146 642.6C129.079 642.867 132.079 643.133 135.146 643.4C138.346 643.533 141.213 643.667 143.746 643.8C146.813 643.933 149.813 644.067 152.746 644.2V654.2ZM269.227 657.4L254.027 680.4L269.227 739H248.627L239.227 703.2L225.027 724.6L208.827 701.2L199.427 739H178.227L193.627 679.6L178.027 657.4H184.427L196.227 668.8L208.627 618.8C208.761 618.4 208.827 617.6 208.827 616.4C208.961 615.067 208.694 613.667 208.027 612.2C207.494 610.733 206.427 609.333 204.827 608C203.361 606.667 201.094 605.8 198.027 605.4C195.094 605 192.694 604.733 190.827 604.6C189.094 604.467 187.694 604.333 186.627 604.2C185.427 604.067 184.494 604 183.827 604V599H233.427L251.427 669.6L263.427 657.4H269.227ZM224.827 696.2L234.827 686.2L223.627 641.8L212.827 684.8L224.827 696.2ZM262.598 599H354.398V636.8H349.398C349.264 637.2 349.131 637.2 348.998 636.8C348.864 636.4 348.664 635.6 348.398 634.4C348.264 633.067 348.064 630.933 347.798 628C347.398 624.4 346.198 622.067 344.198 621C342.198 619.8 340.264 619.2 338.398 619.2H301.598V739H281.598V615C281.598 613.267 280.864 611.467 279.398 609.6C277.931 607.733 275.064 606.333 270.798 605.4C269.598 605.133 268.464 604.933 267.398 604.8C266.464 604.667 265.598 604.533 264.798 604.4C263.998 604.267 263.264 604.133 262.598 604V599ZM427.473 644V599H447.873V739H427.473V705C427.473 703.133 426.606 701.4 424.873 699.8C423.139 698.2 420.673 697.2 417.473 696.8C414.539 696.4 411.473 696.133 408.273 696C405.206 695.733 402.339 695.6 399.673 695.6C397.139 695.467 395.006 695.4 393.273 695.4C391.539 695.267 390.673 695.2 390.673 695.2V739H370.473V599H390.673V632.6C390.673 634.467 391.406 636.467 392.873 638.6C394.473 640.733 397.206 642 401.073 642.4C403.739 642.8 406.473 643.133 409.273 643.4C412.206 643.533 414.873 643.667 417.273 643.8C419.806 643.8 422.006 643.867 423.873 644C425.739 644 426.939 644 427.473 644ZM427.473 654.2H390.673V664.8H427.473V654.2ZM390.673 685.2H427.473V675.2H390.673V685.2ZM531.934 599V739H511.934V599H531.934ZM603.765 640.2C612.965 644.067 620.498 650.333 626.365 659C632.232 667.667 635.165 677.2 635.165 687.6C635.165 694.667 633.765 701.333 630.965 707.6C628.298 713.867 624.632 719.333 619.965 724C615.432 728.667 610.032 732.333 603.765 735C597.632 737.667 591.032 739 583.965 739H544.165V694.4H549.165C549.165 695.2 549.165 696.4 549.165 698C549.298 699.6 549.432 701.333 549.565 703.2C549.832 704.933 550.165 706.733 550.565 708.6C550.965 710.333 551.432 711.8 551.965 713L583.965 654.8C578.098 652.933 572.698 650.2 567.765 646.6C562.965 642.867 558.765 638.533 555.165 633.6C551.698 628.667 548.965 623.267 546.965 617.4C544.965 611.533 543.965 605.4 543.965 599H610.365C613.432 599 615.632 597.733 616.965 595.2L620.565 588.8L629.365 593.8L603.765 640.2ZM593.965 636.6L603.965 619.2H569.565C572.232 623.733 575.632 627.533 579.765 630.6C583.898 633.667 588.632 635.667 593.965 636.6ZM583.965 718.8C588.232 718.8 592.232 718 595.965 716.4C599.698 714.667 602.965 712.4 605.765 709.6C608.565 706.8 610.765 703.533 612.365 699.8C614.098 695.933 614.965 691.867 614.965 687.6C614.965 680.933 612.965 674.867 608.965 669.4C605.098 663.933 600.098 660.067 593.965 657.8L560.165 718.8H583.965ZM777.43 657.4L762.23 680.4L777.43 739H756.83L747.43 703.2L733.23 724.6L717.03 701.2L707.63 739H686.43L701.83 679.6L686.23 657.4H692.63L704.43 668.8L716.83 618.8C716.964 618.4 717.03 617.6 717.03 616.4C717.164 615.067 716.897 613.667 716.23 612.2C715.697 610.733 714.63 609.333 713.03 608C711.564 606.667 709.297 605.8 706.23 605.4C703.297 605 700.897 604.733 699.03 604.6C697.297 604.467 695.897 604.333 694.83 604.2C693.63 604.067 692.697 604 692.03 604V599H741.63L759.63 669.6L771.63 657.4H777.43ZM733.03 696.2L743.03 686.2L731.83 641.8L721.03 684.8L733.03 696.2ZM904.088 739C893.955 739 884.422 737.067 875.488 733.2C866.555 729.333 858.755 724.067 852.088 717.4C845.422 710.733 840.155 703 836.288 694.2C832.422 685.267 830.488 675.733 830.488 665.6V599H906.488V644.2H901.488C901.488 643.667 901.422 642.8 901.288 641.6C901.155 640.533 900.955 639.133 900.688 637.4C900.555 635.667 900.355 633.333 900.088 630.4C899.822 627.733 899.088 625.667 897.888 624.2C896.822 622.733 895.555 621.667 894.088 621C892.755 620.333 891.422 619.933 890.088 619.8C888.755 619.533 887.755 619.4 887.088 619.4H850.888V665.6C850.888 671.333 851.755 676.867 853.488 682.2C855.222 687.4 857.688 692.2 860.888 696.6C864.088 701 867.822 704.867 872.088 708.2C876.488 711.4 881.288 713.933 886.488 715.8V678.4C886.488 678 886.355 677.2 886.088 676C885.955 674.667 885.555 673.333 884.888 672C884.222 670.533 883.155 669.267 881.688 668.2C880.222 667 878.155 666.2 875.488 665.8L862.888 664.2V654.2H906.488V739H904.088ZM938.574 599V739H918.574V599H938.574ZM1027.01 599V644.2H1021.81C1021.67 643.667 1021.54 642.8 1021.41 641.6C1021.27 640.533 1021.14 639.133 1021.01 637.4C1020.87 635.533 1020.67 633.133 1020.41 630.2C1020.14 627.667 1019.41 625.667 1018.21 624.2C1017.14 622.733 1015.87 621.6 1014.41 620.8C1013.07 620 1011.74 619.533 1010.41 619.4C1009.07 619.133 1008.07 619 1007.41 619H971.205V631C971.472 632.867 972.272 635.2 973.605 638C974.939 640.667 977.739 642.2 982.005 642.6C984.939 642.867 987.939 643.133 991.005 643.4C994.072 643.533 996.939 643.667 999.605 643.8C1002.81 643.933 1005.87 644.067 1008.81 644.2V654.2H971.205V721C971.205 722.733 971.939 724.933 973.405 727.6C974.872 730.267 977.739 731.867 982.005 732.4L996.005 734V739H950.605V599H1027.01ZM1034.08 599H1125.88V636.8H1120.88C1120.75 637.2 1120.62 637.2 1120.48 636.8C1120.35 636.4 1120.15 635.6 1119.88 634.4C1119.75 633.067 1119.55 630.933 1119.28 628C1118.88 624.4 1117.68 622.067 1115.68 621C1113.68 619.8 1111.75 619.2 1109.88 619.2H1073.08V739H1053.08V615C1053.08 613.267 1052.35 611.467 1050.88 609.6C1049.42 607.733 1046.55 606.333 1042.28 605.4C1041.08 605.133 1039.95 604.933 1038.88 604.8C1037.95 604.667 1037.08 604.533 1036.28 604.4C1035.48 604.267 1034.75 604.133 1034.08 604V599ZM1161.56 718.6V739H1140.96V718.6H1161.56Z" fill="#823333" fill-opacity="0.25"/>
</svg>
